<svg viewBox="0 0 256 256" xmlns="http://www.w3.org/2000/svg" role="img" aria-label="Hydra IDE">
  <defs>
    <linearGradient id="bgE" x1="0" y1="0" x2="1" y2="1">
      <stop offset="0" stop-color="#0e2236"/>
      <stop offset="1" stop-color="#081320"/>
    </linearGradient>
    <linearGradient id="skE" x1="0" y1="1" x2="1" y2="0">
      <stop offset="0" stop-color="#26e0b6"/>
      <stop offset=".55" stop-color="#34b6ff"/>
      <stop offset="1" stop-color="#7b6cff"/>
    </linearGradient>
  </defs>
  <rect width="256" height="256" rx="58" fill="url(#bgE)"/>
  <!-- cuerpo / base -->
  <path d="M128 216 C 103 216 90 199 95 177 L 161 177 C 166 199 153 216 128 216 Z" fill="url(#skE)" opacity=".92"/>
  <!-- cuellos -->
  <g fill="none" stroke="url(#skE)" stroke-width="20" stroke-linecap="round">
    <path d="M118 186 C 90 168 73 150 69 112"/>
    <path d="M128 188 L 128 92"/>
    <path d="M138 186 C 166 168 183 150 187 112"/>
  </g>
  <!-- cabezas -->
  <g fill="url(#skE)">
    <g transform="translate(69,104) rotate(-26)">
      <path d="M0,-27 C12,-27 17,-12 14,3 C12,14 6,19 0,19 C-6,19 -12,14 -14,3 C-17,-12 -12,-27 0,-27 Z"/>
      <circle cx="0" cy="-9" r="3.6" fill="#081320"/>
    </g>
    <g transform="translate(128,84)">
      <path d="M0,-27 C12,-27 17,-12 14,3 C12,14 6,19 0,19 C-6,19 -12,14 -14,3 C-17,-12 -12,-27 0,-27 Z"/>
      <circle cx="0" cy="-9" r="3.6" fill="#081320"/>
    </g>
    <g transform="translate(187,104) rotate(26)">
      <path d="M0,-27 C12,-27 17,-12 14,3 C12,14 6,19 0,19 C-6,19 -12,14 -14,3 C-17,-12 -12,-27 0,-27 Z"/>
      <circle cx="0" cy="-9" r="3.6" fill="#081320"/>
    </g>
  </g>
</svg>
